<mxfile host="app.diagrams.net" modified="2023-10-19T16:25:54.689Z" agent="Mozilla/5.0 (Macintosh; Intel Mac OS X 10_15_7) AppleWebKit/537.36 (KHTML, like Gecko) Chrome/118.0.0.0 Safari/537.36" version="22.0.5" etag="goFo9SwRn5vTik-1t-oo" type="github">
  <diagram name="PÃ¡gina-1" id="_rsVT2nNd-hp55b8YD9N">
    <mxGraphModel>
      <root>
        <mxCell id="0" />
        <mxCell id="1" parent="0" />
      </root>
    </mxGraphModel>
  </diagram>
</mxfile>
